<?xml version="1.0" encoding="UTF-8"?>
<svg version="1.1" xmlns="http://www.w3.org/2000/svg" width="554" height="770">
<path d="M0 0 C182.82 0 365.64 0 554 0 C554 254.1 554 508.2 554 770 C371.18 770 188.36 770 0 770 C0 515.9 0 261.8 0 0 Z " fill="#000000" transform="translate(0,0)"/>
<path d="M0 0 C2.80991482 0.20758739 5.62060379 0.37830688 8.43310547 0.546875 C63.59930356 4.16213555 118.54249697 22.10306457 163.74951172 54.203125 C164.31460449 54.60241211 164.87969727 55.00169922 165.46191406 55.41308594 C185.30949604 69.55226544 203.30564548 86.56811881 217.74951172 106.203125 C218.45205078 107.12222656 219.15458984 108.04132813 219.87841797 108.98828125 C241.95752414 138.32627165 254.97446324 173.64407951 257.74951172 210.203125 C249.94270295 213.45319476 242.01039561 216.22442421 233.99560547 218.9140625 C232.6649051 219.36293852 231.33429508 219.81208246 230.00376892 220.26147461 C227.19018715 221.21124868 224.37605913 222.15937808 221.5614624 223.10614014 C217.13634975 224.59471749 212.7125586 226.08719308 208.2890625 227.58056641 C207.55381222 227.82877829 206.81856194 228.07699017 206.06103134 228.33272362 C204.58101768 228.83236543 203.10100795 229.33201889 201.6210022 229.83168411 C199.41359986 230.57679778 197.20608123 231.32156597 194.99853516 232.06625366 C183.69867083 235.87868215 172.40764854 239.71645151 161.12451172 243.578125 C157.97349917 244.65633511 154.82246268 245.73447521 151.67138672 246.8125 C150.89349289 247.07867126 150.11559906 247.34484253 149.31413269 247.61907959 C142.6131428 249.91067619 135.908179 252.19051357 129.20263672 254.46875 C128.13377228 254.832034 127.06490784 255.19531799 125.96365356 255.5696106 C117.36931054 258.49062912 117.36931054 258.49062912 113.31268311 259.86688232 C110.4292964 260.8451225 107.54638301 261.82474575 104.66357422 262.8046875 C103.77197601 263.10686691 102.88037781 263.40904633 101.96176147 263.72038269 C96.50492338 265.57757451 91.0937373 267.52153107 85.73730469 269.65454102 C83.74951172 270.203125 83.74951172 270.203125 80.24951172 269.515625 C76.0009141 269.13628593 75.35257933 269.92547119 71.97338867 272.34448242 C65.29036872 276.74304312 58.20735893 279.17305017 50.66748047 281.62890625 C49.23982537 282.10605786 47.81261226 282.58453375 46.38581848 283.06425476 C42.66562255 284.31119056 38.93979458 285.54033588 35.21240234 286.76556396 C31.41971505 288.01578752 27.63273207 289.28304714 23.84521484 290.54882812 C17.18939199 292.77069524 10.52888654 294.97795914 3.8646698 297.17451477 C1.73319454 297.87831766 -0.3858885 298.62048876 -2.49272156 299.39494324 C-5.25048828 300.203125 -5.25048828 300.203125 -7.84814453 299.26953125 C-8.66154297 298.77324219 -9.47494141 298.27695312 -10.31298828 297.765625 C-13.83380476 295.5939313 -13.83380476 295.5939313 -17.85205078 295.44140625 C-20.46003095 296.20453993 -20.46003095 296.20453993 -23.56298828 297.828125 C-31.636171 300.83846432 -40.01708827 296.86803198 -47.81689453 294.2734375 C-49.60618629 293.68693924 -49.60618629 293.68693924 -51.43162537 293.08859253 C-53.94496478 292.26317146 -56.45721626 291.43509579 -58.96801758 290.60205078 C-62.16857823 289.54028524 -65.37207308 288.48773887 -68.5767374 287.43843269 C-71.65801138 286.42880668 -74.73743559 285.4135837 -77.81689453 284.3984375 C-78.95872696 284.02333038 -80.10055939 283.64822327 -81.2769928 283.26174927 C-88.43231596 280.88559211 -95.37090754 278.58022278 -101.76611328 274.50390625 C-102.54212891 274.01728516 -103.31814453 273.53066406 -104.11767578 273.02929688 C-105.72265449 272.00974073 -107.32680568 270.98888087 -108.93017578 269.96679688 C-109.70103516 269.48404297 -110.47189453 269.00128906 -111.26611328 268.50390625 C-111.95995117 268.06216064 -112.65378906 267.62041504 -113.36865234 267.1652832 C-115.34341708 265.9755074 -115.34341708 265.9755074 -118.25048828 266.203125 C-118.58048828 267.523125 -118.91048828 268.843125 -119.25048828 270.203125 C-128.78737238 268.01239093 -138.01816325 265.09449369 -147.28955078 262.00390625 C-148.84025353 261.49075335 -150.39110469 260.97804875 -151.9420929 260.46575928 C-155.22312996 259.38131322 -158.5033595 258.29447466 -161.78292847 257.20559692 C-170.36640393 254.35604805 -178.95492925 251.52177709 -187.54345703 248.6875 C-188.82226211 248.26526752 -188.82226211 248.26526752 -190.12690163 247.83450508 C-205.11846181 242.88590464 -220.14065138 238.04217611 -235.18798828 233.265625 C-248.43921953 229.05461141 -261.66758249 224.79774676 -274.81298828 220.265625 C-275.99820068 219.85771729 -277.18341309 219.44980957 -278.40454102 219.02954102 C-286.115403 216.33821028 -286.115403 216.33821028 -287.25048828 215.203125 C-288.22183166 166.91348256 -262.30700279 119.74102969 -229.77099609 85.78222656 C-229.26922852 85.26112305 -228.76746094 84.74001953 -228.25048828 84.203125 C-227.7487207 83.67944336 -227.24695313 83.15576172 -226.72998047 82.61621094 C-219.96942118 75.59479406 -212.94361812 69.21038173 -205.25048828 63.203125 C-204.29013672 62.42582031 -203.32978516 61.64851563 -202.34033203 60.84765625 C-147.5135753 17.2496411 -69.69512005 -5.2136612 0 0 Z " fill="#FFFFFF" transform="translate(292.25048828125,156.796875)"/>
<path d="M0 0 C91.41 0 182.82 0 277 0 C275.35 1.65 273.7 3.3 272 5 C270.858736 7.89705476 271 9.77152997 271 13 C272.42621684 15.71126384 272.42621684 15.71126384 274 18 C273.56912731 21.09612233 272.3284284 23.3797928 270.70703125 26.01953125 C270.24409668 26.78765137 269.78116211 27.55577148 269.30419922 28.34716797 C268.56580811 29.56750732 268.56580811 29.56750732 267.8125 30.8125 C261.12410988 42.09848125 254.06662747 54.46609831 255 68 C256.70510338 73.29479471 258.46156074 75.86513801 263 79 C265.56550761 80.10225891 268.05958285 81.08592836 270.6875 82 C272.11473076 82.51912611 273.54181435 83.03865702 274.96875 83.55859375 C277.34207409 84.40977424 279.71752841 85.25457763 282.09375 86.09765625 C287.80137512 88.22082403 292.15458895 90.3091779 295 96 C296.32324607 109.31923098 291.38609665 120.2894454 285.203125 131.734375 C283.61574506 134.68552136 282.34943451 137.62970518 281.171875 140.765625 C279.20085379 145.53257447 277.25425149 149.88638878 273 153 C265.75567859 155.19694744 257.92117759 154.35397168 250.45166016 154.06005859 C245.11368821 153.96717833 239.91436214 154.51542492 234.625 155.1875 C233.09625244 155.38025513 233.09625244 155.38025513 231.53662109 155.5769043 C169.02361849 164.0366133 110.78213572 190.59959389 65 234 C64.49823242 234.47308594 63.99646484 234.94617188 63.47949219 235.43359375 C55.48033535 243.02636256 48.58113983 251.16024414 42 260 C41.56945313 260.56976563 41.13890625 261.13953125 40.6953125 261.7265625 C33.9348934 270.6994824 28.20178826 280.04625614 23 290 C22.66258789 290.63679688 22.32517578 291.27359375 21.97753906 291.9296875 C9.76007406 315.29186448 3.1152215 340.82102337 1 367 C0.67 367 0.34 367 0 367 C0 245.89 0 124.78 0 0 Z " fill="#FFFFFF" transform="translate(0,0)"/>
<path d="M0 0 C89.43 0 178.86 0 271 0 C271 117.48 271 234.96 271 356 C270.67 356 270.34 356 270 356 C269.91024902 355.4330542 269.82049805 354.8661084 269.72802734 354.28198242 C260.11020071 294.76045133 226.66180123 244.89132622 178.25 209.5 C170.99470032 204.26864626 163.58634666 199.4744074 155.81689453 195.04736328 C154.02600703 194.01499196 152.26065654 192.94771783 150.49609375 191.87109375 C121.44398618 174.44767053 88.06026088 164.365674 55 158 C54.17822266 157.83806152 53.35644531 157.67612305 52.50976562 157.50927734 C33.95023178 153.96066261 14.81907865 153.31384319 -4 152 C1.79147559 141.36960211 1.79147559 141.36960211 4.16015625 137.1015625 C11.5477025 123.60070795 18.71389446 109.47975678 15.52734375 93.65234375 C13.31382802 87.87940573 8.92976181 85.82770811 3.50390625 83.37109375 C-1.44854238 81.43317907 -6.46084629 79.79834538 -11.5546875 78.2734375 C-16.29956221 76.51966295 -19.914749 74.47034006 -22.9375 70.375 C-26.0117726 60.6096635 -21.31013319 50.75470342 -17 42 C-6.3110208 21.99043749 -6.3110208 21.99043749 3 18 C5.72604799 15.5377631 5.96853429 14.24723056 6.4375 10.5625 C5.82147643 5.54630805 3.45224111 3.45224111 0 0 Z " fill="#FFFFFF" transform="translate(283,0)"/>
<path d="M0 0 C2.33343427 3.50015141 3.14238137 6.89518231 4.12866211 10.91870117 C4.33292816 11.73159638 4.53719421 12.5444916 4.74765015 13.38202 C5.42958441 16.10102333 6.10332692 18.82199293 6.77734375 21.54296875 C7.25985312 23.47168981 7.74298499 25.40025523 8.22669983 27.32867432 C9.26113817 31.45579135 10.29249395 35.5836612 11.3215332 39.71212769 C14.03897148 50.60943599 16.78335429 61.49997794 19.52734375 72.390625 C19.80310619 73.48560743 20.07886864 74.58058987 20.36298752 75.70875359 C33.04438328 126.04683584 46.34497525 176.19743737 61 226 C61.23164856 226.79077942 61.46329712 227.58155884 61.70196533 228.39630127 C86.41450878 315.37848901 86.41450878 315.37848901 147.125 378.1875 C164.42716607 387.26452015 183.70672038 391.03764225 203 393 C203 393.33 203 393.66 203 394 C136.01 394 69.02 394 0 394 C0 263.98 0 133.96 0 0 Z " fill="#FFFFFF" transform="translate(0,376)"/>
<path d="M0 0 C0.66 0.33 1.32 0.66 2 1 C-1.40434942 4.50009675 -4.83451045 7.9061892 -8.5625 11.0625 C-12.57741719 14.51392004 -16.27865891 18.23940426 -20 22 C-24.16645226 26.21012576 -28.35285427 30.27241232 -32.87890625 34.09765625 C-36.47737461 37.32501185 -39.8252353 40.80624973 -43.22290039 44.24243164 C-46.64055815 47.68388165 -50.14278209 50.92608651 -53.84375 54.0625 C-56.84614704 56.76030603 -59.66260582 59.63044038 -62.5 62.5 C-65.89006118 65.92844828 -69.25193982 69.3226072 -72.9375 72.4375 C-76.84269956 75.74572637 -80.40281168 79.36513493 -84 83 C-88.16646694 87.21010629 -92.35285402 91.2724121 -96.87890625 95.09765625 C-100.47737461 98.32501185 -103.8252353 101.80624973 -107.22290039 105.24243164 C-110.64055815 108.68388165 -114.14278209 111.92608651 -117.84375 115.0625 C-120.84614704 117.76030603 -123.66260582 120.63044038 -126.5 123.5 C-129.89006118 126.92844828 -133.25193982 130.3226072 -136.9375 133.4375 C-140.84269956 136.74572637 -144.40281168 140.36513493 -148 144 C-152.16646694 148.21010629 -156.35285402 152.2724121 -160.87890625 156.09765625 C-164.47737461 159.32501185 -167.8252353 162.80624973 -171.22290039 166.24243164 C-174.64055815 169.68388165 -178.14278209 172.92608651 -181.84375 176.0625 C-184.84614704 178.76030603 -187.66260582 181.63044038 -190.5 184.5 C-193.89006118 187.92844828 -197.25193982 191.3226072 -200.9375 194.4375 C-204.84269956 197.74572637 -208.40281168 201.36513493 -212 205 C-216.16646694 209.21010629 -220.35285402 213.2724121 -224.87890625 217.09765625 C-228.46737643 220.31604479 -231.806432 223.7869096 -235.19433594 227.21386719 C-239.2986559 231.34714179 -243.53978941 235.25162855 -248 239 C-252.54947177 235.19181597 -256.88503053 231.25767294 -261.06492615 227.04859924 C-261.63287637 226.48079788 -262.2008266 225.91299651 -262.78598744 225.32798904 C-264.66887383 223.44441392 -266.54817156 221.55730028 -268.42749023 219.67016602 C-269.78476007 218.31097495 -271.14225928 216.9520129 -272.49996948 215.59326172 C-275.41402547 212.6760541 -278.3265227 209.75730234 -281.23782158 206.83734322 C-285.84589652 202.21570203 -290.45782237 197.59791654 -295.07032776 192.98069763 C-305.69413301 182.34486752 -316.31291876 171.70403054 -326.93165588 161.06314087 C-336.66450525 151.31008811 -346.39842201 141.55810702 -356.13640362 131.81017822 C-360.7167971 127.22481662 -365.29474424 122.63703098 -369.87080562 118.04734623 C-372.72341894 115.18724728 -375.57812616 112.32924524 -378.43339157 109.47179413 C-379.75161265 108.15170896 -381.068973 106.83076359 -382.3853817 105.50887108 C-388.18572444 99.68513846 -393.948825 93.89883161 -400.20895481 88.56422138 C-403.58860679 85.61257955 -406.72160289 82.40860023 -409.88476562 79.22875977 C-410.6272052 78.48646622 -411.36964478 77.74417267 -412.13458252 76.97938538 C-414.56085277 74.55242465 -416.98357275 72.12195318 -419.40625 69.69140625 C-421.09853577 67.99725323 -422.79104407 66.30332247 -424.48376465 64.60960388 C-428.91807358 60.17149401 -433.34936997 55.73038821 -437.7800293 51.28863525 C-442.30985792 46.74854022 -446.8425519 42.21130784 -451.375 37.67382812 C-460.25279427 28.7853393 -469.12750395 19.89377736 -478 11 C-474.60083832 11 -474.00531091 11.46166364 -471.3671875 13.421875 C-470.65240234 13.94652344 -469.93761719 14.47117187 -469.20117188 15.01171875 C-468.0497168 15.87216797 -468.0497168 15.87216797 -466.875 16.75 C-465.23761887 17.95399546 -463.599583 19.15710093 -461.9609375 20.359375 C-460.71521973 21.27686523 -460.71521973 21.27686523 -459.44433594 22.21289062 C-455.82923757 24.85597094 -452.16705003 27.42974267 -448.5 30 C-438.84364944 36.79047926 -429.28791023 43.7182242 -419.72949219 50.64550781 C-411.68371227 56.47462861 -403.62615028 62.28327116 -395.5 68 C-388.90955702 72.63636214 -382.34379109 77.30531835 -375.84033203 82.06323242 C-371.90099974 84.94005527 -367.92842831 87.73286174 -363.86328125 90.4296875 C-362.61115845 91.2796228 -362.61115845 91.2796228 -361.33374023 92.14672852 C-359.73211594 93.23181268 -358.11612003 94.29607186 -356.48461914 95.33569336 C-351.23714492 98.93763865 -351.23714492 98.93763865 -350.51660156 102.16552734 C-350.5078125 104.38671875 -350.5078125 104.38671875 -351 108 C-348.97849075 107.96573713 -346.95760452 107.89527283 -344.9375 107.8125 C-343.81214844 107.77769531 -342.68679688 107.74289062 -341.52734375 107.70703125 C-337.63578892 107.28737625 -334.20253533 106.10643769 -330.515625 104.8125 C-320.87113072 101.42869781 -310.95795217 99.21153802 -301.00756836 96.9230957 C-297.77830145 96.17962652 -294.55215486 95.42359408 -291.32617188 94.66601562 C-289.26579527 94.18676739 -287.20525426 93.70822526 -285.14453125 93.23046875 C-284.18416458 93.00554245 -283.22379791 92.78061615 -282.23432922 92.5488739 C-281.34207138 92.34478409 -280.44981354 92.14069427 -279.53051758 91.93041992 C-278.74969315 91.75008713 -277.96886871 91.56975433 -277.16438293 91.38395691 C-275 91 -275 91 -271 91 C-270.67 91.99 -270.34 92.98 -270 94 C-266.30055767 96.42807667 -262.27151295 98.28084539 -258.3125 100.25 C-256.67764648 101.10078125 -256.67764648 101.10078125 -255.00976562 101.96875 C-253.95080078 102.49984375 -252.89183594 103.0309375 -251.80078125 103.578125 C-250.83309814 104.06700195 -249.86541504 104.55587891 -248.8684082 105.05957031 C-245.40315866 106.19567902 -243.48973701 105.98835824 -240 105 C-237.75643357 103.80187061 -237.75643357 103.80187061 -235.69140625 102.25 C-226.28479188 96.09873143 -218.77408935 92.91202514 -207.50488281 95.22631836 C-202.91613775 96.40095355 -198.35751052 97.65393817 -193.82107544 99.01512146 C-185.03069415 101.64640248 -176.09812578 103.67719036 -167.16638184 105.76528931 C-164.34512179 106.42981618 -161.52813175 107.11010067 -158.71191406 107.7956543 C-157.83083481 108.00865173 -156.94975555 108.22164917 -156.04197693 108.44110107 C-154.3822598 108.84242656 -152.7232478 109.24668348 -151.06507874 109.65435791 C-147.58214514 110.48928394 -144.60375004 111 -141 111 C-140.9071875 110.1028125 -140.9071875 110.1028125 -140.8125 109.1875 C-139.66659534 106.10237207 -137.82756239 105.67502337 -135 104 C-132.67572991 102.25342813 -130.4368781 100.404058 -128.1875 98.5625 C-122.93145001 94.30713975 -117.61534404 90.15888882 -112.1875 86.125 C-106.48381629 81.88392413 -100.84741019 77.56786927 -95.25 73.1875 C-88.8899945 68.21369364 -82.47102116 63.32843019 -76 58.5 C-67.23924557 51.96144022 -58.59758303 45.28123242 -49.98535156 38.54882812 C-37.79309089 29.03730554 -25.46617963 19.69538804 -13.171875 10.31640625 C-12.38973633 9.71932861 -11.60759766 9.12225098 -10.80175781 8.50708008 C-9.29116691 7.35394869 -7.78011427 6.20142187 -6.26855469 5.04956055 C-5.59211914 4.53304932 -4.91568359 4.01653809 -4.21875 3.484375 C-3.3205957 2.79939941 -3.3205957 2.79939941 -2.40429688 2.10058594 C-1.02475304 1.06487506 -1.02475304 1.06487506 0 0 Z " fill="#FFFFFF" transform="translate(519,397)"/>
<path d="M0 0 C0.33 0 0.66 0 1 0 C1 130.02 1 260.04 1 394 C-81.83 394 -164.66 394 -250 394 C-250 393.67 -250 393.34 -250 393 C-248.10785767 392.89510254 -248.10785767 392.89510254 -246.17749023 392.78808594 C-172.22560465 390.6033405 -172.22560465 390.6033405 -108.9609375 356.6875 C-107 355 -107 355 -105 355 C-104.731875 354.40832031 -104.46375 353.81664062 -104.1875 353.20703125 C-102.9896976 350.98085245 -101.74063509 349.50763525 -100 347.6875 C-91.11923304 337.69894507 -84.57445314 326.08502314 -78.95019531 314.02734375 C-78.0375196 312.0800521 -77.09495285 310.14976126 -76.1484375 308.21875 C-35.89172602 224.0560823 -24.86231973 122.20470547 0 0 Z " fill="#FFFFFF" transform="translate(553,376)"/>
<path d="M0 0 C82.83 0 165.66 0 251 0 C251 12.87 251 25.74 251 39 C168.17 39 85.34 39 0 39 C0 26.13 0 13.26 0 0 Z " fill="#000000" transform="translate(156,334)"/>
<path d="M0 0 C-8.15883535 6.61147002 -16.38655883 13.09631388 -24.81347656 19.36303711 C-29.84564929 23.11300836 -34.80781708 26.9448924 -39.75 30.8125 C-46.1100055 35.78630636 -52.52897884 40.67156981 -59 45.5 C-67.76075443 52.03855978 -76.40241697 58.71876758 -85.01464844 65.45117188 C-96.34109789 74.28725098 -107.7928755 82.96429026 -119.20703125 91.68652344 C-129.28715013 99.38853028 -129.28715013 99.38853028 -139.35302734 107.10913086 C-140.9402345 108.32906402 -142.52868695 109.54737646 -144.1171875 110.765625 C-145.99000981 112.21718917 -147.8502775 113.68515115 -149.6953125 115.171875 C-150.89800781 116.13867188 -150.89800781 116.13867188 -152.125 117.125 C-152.80820312 117.68445313 -153.49140625 118.24390625 -154.1953125 118.8203125 C-156 120 -156 120 -159 120 C-160.65 98.22 -162.3 76.44 -164 54 C-158.26753906 52.06898438 -152.53507812 50.13796875 -146.62890625 48.1484375 C-142.89645373 46.89071578 -139.1640183 45.63294377 -135.43164062 44.375 C-129.56664569 42.39829351 -123.70160363 40.42172806 -117.83618164 38.44628906 C-97.17877119 31.488747 -76.52728435 24.51450459 -55.8984375 17.47265625 C-55.0800194 17.19344204 -54.2616013 16.91422783 -53.41838264 16.62655258 C-37.18120577 11.08516536 -20.97998552 5.44150392 -4.78930664 -0.23413086 C-2 -1 -2 -1 0 0 Z " fill="#FFFFFF" transform="translate(537,378)"/>
<path d="M0 0 C6.90025214 1.40955269 13.47465783 3.34449582 20.15234375 5.5703125 C21.22436035 5.92349045 22.29637695 6.2766684 23.40087891 6.64054871 C25.70956591 7.40144595 28.0176432 8.16419519 30.32516479 8.92861938 C36.51571695 10.97888775 42.71109193 13.01448094 48.90625 15.05078125 C49.53811659 15.25863188 50.16998318 15.46648251 50.82099724 15.68063164 C63.83743225 19.96174346 76.88241959 24.15094008 89.9375 28.3125 C94.00926656 29.61150329 98.08086801 30.91102301 102.15234375 32.2109375 C103.13577255 32.52490982 104.11920135 32.83888214 105.13243103 33.16236877 C114.87408477 36.27497276 124.60663904 39.41543148 134.33401489 42.57235718 C136.09577434 43.14406837 137.8577138 43.71522515 139.61984253 44.28579712 C142.01794484 45.0625485 144.41534259 45.84143192 146.8125 46.62109375 C147.51818619 46.84942902 148.22387238 47.07776428 148.95094299 47.3130188 C153.77003221 48.88501611 153.77003221 48.88501611 156 50 C156.23913948 60.15014254 155.58844026 70.14858592 154.77319336 80.25878906 C154.56122258 82.89086191 154.35717583 85.52346221 154.15429688 88.15625 C154.02129169 89.85159852 153.88784397 91.5469124 153.75390625 93.2421875 C153.6934462 94.01835419 153.63298615 94.79452087 153.57069397 95.59420776 C153.2049773 100.09547293 152.68472144 104.53583767 152 109 C144.1096304 104.28350941 136.76727828 98.94989058 129.39746094 93.47045898 C124.12551044 89.55466874 118.81433604 85.70789997 113.4375 81.9375 C106.7575622 77.25145678 100.12841462 72.49993722 93.51928711 67.71459961 C89.02409714 64.46040403 84.51977204 61.21995972 80 58 C74.71157367 54.23243835 69.44692136 50.43292858 64.1875 46.625 C58.31868597 42.37757019 52.42575593 38.16760248 46.5 34 C38.39529129 28.29852994 30.36016847 22.50411097 22.33642578 16.68945312 C19.87239978 14.90773318 17.40354666 13.13286824 14.93359375 11.359375 C14.10786865 10.76568115 13.28214355 10.1719873 12.43139648 9.56030273 C10.84205561 8.41780938 9.2517625 7.27663921 7.66040039 6.13696289 C6.94746826 5.62383545 6.23453613 5.11070801 5.5 4.58203125 C4.8709375 4.13061768 4.241875 3.6792041 3.59375 3.21411133 C2 2 2 2 0 0 Z " fill="#FFFFFF" transform="translate(16,382)"/>
<path d="M0 0 C8.53005066 7.95937826 13.38625209 16.46290673 15 28 C14.34 28 13.68 28 13 28 C12.67 28.99 12.34 29.98 12 31 C-15.72 31 -43.44 31 -72 31 C-74.32115035 26.3576993 -74.03459796 25.62924632 -72.5625 20.875 C-68.95638192 10.11694875 -62.38124652 1.05752733 -52.328125 -4.46875 C-34.81531252 -12.78975483 -15.82247305 -12.1919741 0 0 Z " fill="#00A2E8" transform="translate(223,257)"/>
<path d="M0 0 C11.49121513 5.95408389 19.9427776 14.3806429 24.4140625 26.62890625 C25.26044943 29.37733854 25.82390944 32.07713969 26.125 34.9375 C25.465 34.9375 24.805 34.9375 24.125 34.9375 C23.795 35.9275 23.465 36.9175 23.125 37.9375 C-4.595 37.9375 -32.315 37.9375 -60.875 37.9375 C-63.19615035 33.2951993 -62.90959796 32.56674632 -61.4375 27.8125 C-57.82758861 17.04313223 -51.20702092 7.80969212 -41.02734375 2.43359375 C-28.78144905 -3.22952752 -12.88008996 -5.10848821 0 0 Z " fill="#00A2E8" transform="translate(380.875,249.0625)"/>
<path d="M0 0 C8.53005066 7.95937826 13.38625209 16.46290673 15 28 C14.34 28 13.68 28 13 28 C12.67 28.99 12.34 29.98 12 31 C-15.72 31 -43.44 31 -72 31 C-74.32115035 26.3576993 -74.03459796 25.62924632 -72.5625 20.875 C-68.95638192 10.11694875 -62.38124652 1.05752733 -52.328125 -4.46875 C-34.81531252 -12.78975483 -15.82247305 -12.1919741 0 0 Z M-59.8125 7.75 C-64.1552895 13.10130459 -68 19.0015565 -68 26 C-42.59 26 -17.18 26 9 26 C7.59291649 16.15041543 3.00356185 8.79065639 -4.75390625 2.5 C-22.10005754 -9.08421234 -45.24908631 -7.85365752 -59.8125 7.75 Z " fill="#000000" transform="translate(223,257)"/>
<path d="M0 0 C11.49121513 5.95408389 19.9427776 14.3806429 24.4140625 26.62890625 C25.26044943 29.37733854 25.82390944 32.07713969 26.125 34.9375 C25.465 34.9375 24.805 34.9375 24.125 34.9375 C23.795 35.9275 23.465 36.9175 23.125 37.9375 C-4.595 37.9375 -32.315 37.9375 -60.875 37.9375 C-63.19615035 33.2951993 -62.90959796 32.56674632 -61.4375 27.8125 C-57.82758861 17.04313223 -51.20702092 7.80969212 -41.02734375 2.43359375 C-28.78144905 -3.22952752 -12.88008996 -5.10848821 0 0 Z M-48.6875 14.6875 C-53.0302895 20.03880459 -56.875 25.9390565 -56.875 32.9375 C-31.465 32.9375 -6.055 32.9375 20.125 32.9375 C18.71791649 23.08791543 14.12856185 15.72815639 6.37109375 9.4375 C-10.97505754 -2.14671234 -34.12408631 -0.91615752 -48.6875 14.6875 Z " fill="#000000" transform="translate(380.875,249.0625)"/>
<path d="M0 0 C9.9 0 19.8 0 30 0 C30 9.57 30 19.14 30 29 C20.1 29 10.2 29 0 29 C0 19.43 0 9.86 0 0 Z " fill="#99D9EA" transform="translate(306,339)"/>
<path d="M0 0 C9.57 0 19.14 0 29 0 C29 9.57 29 19.14 29 29 C19.43 29 9.86 29 0 29 C0 19.43 0 9.86 0 0 Z " fill="#99D9EA" transform="translate(373,339)"/>
<path d="M0 0 C9.24 0 18.48 0 28 0 C28 9.57 28 19.14 28 29 C18.76 29 9.52 29 0 29 C0 19.43 0 9.86 0 0 Z " fill="#99D9EA" transform="translate(189,339)"/>
<path d="M0 0 C8.91 0 17.82 0 27 0 C27 9.57 27 19.14 27 29 C18.09 29 9.18 29 0 29 C0 19.43 0 9.86 0 0 Z " fill="#99D9EA" transform="translate(341,339)"/>
<path d="M0 0 C8.25 0 16.5 0 25 0 C25 9.57 25 19.14 25 29 C16.75 29 8.5 29 0 29 C0 19.43 0 9.86 0 0 Z " fill="#99D9EA" transform="translate(249,339)"/>
<path d="M0 0 C7.59 0 15.18 0 23 0 C23 9.57 23 19.14 23 29 C15.41 29 7.82 29 0 29 C0 19.43 0 9.86 0 0 Z " fill="#99D9EA" transform="translate(161,339)"/>
<path d="M0 0 C7.26 0 14.52 0 22 0 C22 9.57 22 19.14 22 29 C14.74 29 7.48 29 0 29 C0 19.43 0 9.86 0 0 Z " fill="#99D9EA" transform="translate(279,339)"/>
<path d="M0 0 C7.26 0 14.52 0 22 0 C22 9.57 22 19.14 22 29 C14.74 29 7.48 29 0 29 C0 19.43 0 9.86 0 0 Z " fill="#99D9EA" transform="translate(222,339)"/>
<path d="M0 0 C3.30583039 2.20388692 3.88814046 3.58984836 4.9375 7.4375 C5.00779003 11.44403151 4.53249114 12.94354518 2 16 C-1.41928194 18.56446145 -4.8501922 18.29641484 -9 18 C-11.90567066 17.11215619 -12.86322363 16.16507493 -14.8125 13.8125 C-16.39739585 10.05879929 -16.06435104 7.90262049 -15 4 C-10.81517082 -1.30078362 -6.33073559 -1.62097464 0 0 Z " fill="#000000" transform="translate(277,576)"/>
<path d="M0 0 C3.30583039 2.20388692 3.88814046 3.58984836 4.9375 7.4375 C5.00779003 11.44403151 4.53249114 12.94354518 2 16 C-1.41928194 18.56446145 -4.8501922 18.29641484 -9 18 C-11.90567066 17.11215619 -12.86322363 16.16507493 -14.8125 13.8125 C-16.39739585 10.05879929 -16.06435104 7.90262049 -15 4 C-10.81517082 -1.30078362 -6.33073559 -1.62097464 0 0 Z " fill="#000000" transform="translate(277,522)"/>
<path d="M0 0 C-3.89309242 2.38935065 -7.78923446 4.77361859 -11.68823242 7.15332031 C-13.01296701 7.96281743 -14.33687206 8.77367378 -15.65991211 9.5859375 C-17.56665708 10.75623001 -19.47637578 11.92152992 -21.38671875 13.0859375 C-21.97337814 13.44746918 -22.56003754 13.80900085 -23.16447449 14.18148804 C-26.35528895 16.11921382 -29.48841515 17.72881203 -33 19 C-33.391875 18.566875 -33.78375 18.13375 -34.1875 17.6875 C-36.28319278 15.73633776 -38.51589333 14.40989838 -41 13 C-37.55861369 10.70574246 -34.03299216 9.48076544 -30.15625 8.14453125 C-29.39074829 7.87863693 -28.62524658 7.61274261 -27.83654785 7.33879089 C-26.22011638 6.77929891 -24.60286586 6.22216844 -22.98486328 5.66723633 C-20.50595808 4.81454944 -18.03231373 3.94767481 -15.55859375 3.08007812 C-13.98728144 2.5381852 -12.4156763 1.99714051 -10.84375 1.45703125 C-10.10306274 1.19565872 -9.36237549 0.93428619 -8.59924316 0.66499329 C-3.34318265 -1.11439422 -3.34318265 -1.11439422 0 0 Z " fill="#FFFFFF" transform="translate(335,447)"/>
<path d="M0 0 C8.05856516 1.59592912 15.76345169 4.07125036 23.5625 6.625 C24.87031942 7.04985888 26.17826132 7.47434091 27.48632812 7.8984375 C30.65877263 8.92860398 33.82993255 9.96254657 37 11 C34.79101571 13.30967874 32.87418193 14.60926681 30 16 C29.34 16.66 28.68 17.32 28 18 C24.26730778 15.75581018 20.53949533 13.50363605 16.8125 11.25 C15.75740234 10.61578125 14.70230469 9.9815625 13.61523438 9.328125 C12.59365234 8.709375 11.57207031 8.090625 10.51953125 7.453125 C9.58214111 6.88754883 8.64475098 6.32197266 7.67895508 5.73925781 C4.96827504 3.9794032 2.48799969 2.05985065 0 0 Z " fill="#FFFFFF" transform="translate(219,448)"/>
</svg>
